# xmcd
# 
# Track frame offsets:
#     150
#     35002
#     55047
#     81532
#     105842
#     123060
#     145250
#     160045
#     193009
# 
# Disc length: 2839
# 
# Revision: 0
# Processed by: cddbd v1.5.2PL0 Copyright (c) Steve Scherf et al.
# Submitted via: BonkEnc v1.0
# 
DISCID=6e0b1509
DTITLE=Mike Bloomfield - Live At the Old Waldorf
DYEAR=1998
DGENRE=Blues
TTITLE0=Blues Medley: Sweet Little Angel/Jelly Kelly
TTITLE1=Feel So Bad
TTITLE2=Bad Luck Baby
TTITLE3=The Sky Is Cryin'
TTITLE4=Dancin' Fool
TTITLE5=Buried Alive In The Blues
TTITLE6=Farther Up The Road
TTITLE7=Your Friends
TTITLE8=Bye, Bye
EXTD=
EXTT0=
EXTT1=
EXTT2=
EXTT3=
EXTT4=
EXTT5=
EXTT6=
EXTT7=
EXTT8=
PLAYORDER=
